<svg xmlns="http://www.w3.org/2000/svg" width="32px" height="32px" viewBox="0 0 32 32"><defs><style>.a{fill:#7376c3;}.b{fill:#fff;}</style></defs><title>map_marker</title><path class="a" d="M4.89,28.67A17,17,0,1,1,35.48,18.48a16.85,16.85,0,0,1-3.39,10.18L18.48,46.8Zm13.6-19a8.82,8.82,0,1,0,8.82,8.82A8.83,8.83,0,0,0,18.49,9.67Z"/><path class="b" d="M18.49,3a15.48,15.48,0,0,1,12.4,24.76L18.48,44.3,6.09,27.77A15.49,15.49,0,0,1,18.49,3m0,25.81A10.32,10.32,0,1,0,8.17,18.49,10.33,10.33,0,0,0,18.49,28.81M18.49,0A18.49,18.49,0,0,0,3.69,29.57L16.08,46.1l2.4,3.2,2.4-3.2L33.29,29.57A18.48,18.48,0,0,0,18.49,0Zm0,25.81a7.32,7.32,0,1,1,7.32-7.32,7.33,7.33,0,0,1-7.32,7.32Z"/></svg>
