<svg xmlns="http://www.w3.org/2000/svg" height= "32px" width= "32px" viewBox="0 0 32 32"><defs><style>.a{fill:#ef5084;}.b{fill:#fff;}</style></defs><title>map_marker_pink</title><path class="a" d="M7.18,18.95a11,11,0,1,1,17.66,0L16,30.72ZM16,6.62a5.72,5.72,0,1,0,5.72,5.72h0A5.73,5.73,0,0,0,16,6.62Z"/><path class="b" d="M16,1.95A10,10,0,0,1,24,18L16,28.75,7.95,18A10.05,10.05,0,0,1,16,1.95M16,18.7A6.7,6.7,0,1,0,9.3,12h0A6.71,6.71,0,0,0,16,18.7M16,0A12,12,0,0,0,6.39,19.19l8,10.73L16,32l1.56-2.08L25.6,19.19A12,12,0,0,0,16,0Zm0,16.75A4.75,4.75,0,1,1,20.75,12h0A4.76,4.76,0,0,1,16,16.75Z"/></svg>
