<?xml version="1.0" encoding="utf-8"?>
<!-- Generator: Adobe Illustrator 19.0.0, SVG Export Plug-In . SVG Version: 6.00 Build 0)  -->
<svg version="1.1" id="Layer_2" xmlns="http://www.w3.org/2000/svg" xmlns:xlink="http://www.w3.org/1999/xlink" x="0px" y="0px"
	 viewBox="0 0 90.2 177.5" style="enable-background:new 0 0 90.2 177.5;" xml:space="preserve">
<style type="text/css">
	.st0{fill:#FFFFFF;}
	.st1{fill:#D6D6D6;stroke:#000000;stroke-width:5;stroke-miterlimit:10;}
	.st2{fill:#414D7F;stroke:#000000;stroke-width:5;stroke-miterlimit:10;}
	.st3{opacity:0.87;fill:none;stroke:#FFFFFF;stroke-width:9;stroke-miterlimit:10;}
	.st4{opacity:0.87;fill:none;stroke:#FFFFFF;stroke-width:9;stroke-linecap:round;stroke-linejoin:round;stroke-miterlimit:10;}
	.st5{opacity:0.63;fill:#FFFFFF;}
	.st6{opacity:0.87;fill:#414D7F;stroke:#000000;stroke-width:5;stroke-miterlimit:10;}
	.st7{opacity:0.87;fill:none;stroke:#FFFFFF;stroke-width:3;stroke-miterlimit:10;}
	.st8{fill:none;stroke:#000000;stroke-width:5;stroke-miterlimit:10;}
	.st9{opacity:0.87;fill:none;stroke:#FFFFFF;stroke-width:6;stroke-linecap:round;stroke-linejoin:round;stroke-miterlimit:10;}
</style>
<path id="XMLID_48_" class="st0" d="M71.4,32.3c0,0-0.4,2.1,0.2,2.2C93.8,38,75,75.3,75,75.3l-7.4,20.3L56.8,97l-14-5.7L71.4,32.3z"
	/>
<path id="XMLID_16_" class="st1" d="M70.2,28.3c0,0-8.2,61.8-23.2,62.5C31.3,91.5,11,92.5,6.5,75C2.8,60.5,19.3,14.4,25.9,9.5
	c8.9-6.6,14.3-8,19.8-6.4s29.5,9.5,37.5,13.4c8.3,4,5.2,48-7.6,59.1"/>
<path id="XMLID_18_" class="st2" d="M39.9,31.9c0,0,6.6,4.4,16.2,6.3c9.6,1.9,9.6,1.9,9.6,1.9"/>
<path id="XMLID_17_" class="st2" d="M43.9,23.9c0,0,6.6,4.4,16.2,6.3s9.6,1.9,9.6,1.9"/>
<path id="XMLID_20_" class="st2" d="M37.9,40.9c0,0,6.6,4.4,16.2,6.3c9.6,1.9,9.6,1.9,9.6,1.9"/>
<path id="XMLID_19_" class="st2" d="M33.9,48.9c0,0,6.6,4.4,16.2,6.3c9.6,1.9,9.6,1.9,9.6,1.9"/>
<path id="XMLID_24_" class="st2" d="M31.9,57.9c0,0,6.6,4.4,16.2,6.3s14,3.2,14,3.2"/>
<path id="XMLID_23_" class="st2" d="M27.9,65.9c0,0,6.7,3.8,16.2,6.3c13.6,3.5,13.6,3.5,13.6,3.5"/>
<path id="XMLID_26_" class="st2" d="M36.9,23.9c0,0-14.6-2.8-17.4-6.9"/>
<path id="XMLID_25_" class="st2" d="M32.9,31.9c0,0-14.6-2.8-17.4-6.9"/>
<path id="XMLID_28_" class="st2" d="M29.9,39.9c0,0-14.6-2.8-17.4-6.9"/>
<path id="XMLID_27_" class="st2" d="M28.2,47.9c0,0-14.8-1.9-17.6-6"/>
<path id="XMLID_30_" class="st2" d="M25.9,56.9c0,0-14.6-2.8-17.4-6.9"/>
<ellipse id="XMLID_44_" class="st1" cx="41.9" cy="157.5" rx="39.4" ry="17.5"/>
<path id="XMLID_29_" class="st2" d="M24.2,64.9c0,0-14.9-1.8-17.7-5.9"/>
<line id="XMLID_34_" class="st2" x1="36.9" y1="12.8" x2="52.3" y2="4.4"/>
<line id="XMLID_33_" class="st2" x1="45.4" y1="16.1" x2="61.3" y2="7.4"/>
<line id="XMLID_36_" class="st2" x1="55.3" y1="19.1" x2="69.3" y2="11.4"/>
<line id="XMLID_35_" class="st2" x1="65.6" y1="21.3" x2="78.3" y2="14.4"/>
<path id="XMLID_38_" class="st3" d="M40.8,21.9c0,0-8.1,20-18.9,65.1"/>
<path id="XMLID_39_" class="st4" d="M30.2,14.7c4.9,1.2,38.7,11.1,35.4,10.2"/>
<path id="XMLID_45_" class="st1" d="M55.6,90.9c3.8-9.7,5.8-11.8,6.4-32.1c0.2-7,18-1,19.2,3.1c3,10.4-3.4,34.5-19.9,37.6
	s-36.9-9.1-36.9-9.1s7.5,0.4,22.7,0.3c2.1,0,6.2,3.1,9.6-0.9"/>
<line id="XMLID_40_" class="st2" x1="75.7" y1="32.1" x2="84.9" y2="33"/>
<line id="XMLID_41_" class="st2" x1="75.7" y1="40.1" x2="85" y2="41"/>
<ellipse id="XMLID_37_" class="st1" cx="41.9" cy="147.5" rx="39.4" ry="17.5"/>
<ellipse id="XMLID_46_" class="st5" cx="41.3" cy="147.3" rx="32.7" ry="13.2"/>
<line id="XMLID_42_" class="st2" x1="75" y1="47.9" x2="85" y2="50"/>
<path id="XMLID_43_" class="st1" d="M33,91v53c0,0,8,10,16,0V96L33,91z"/>
<path id="XMLID_151_" class="st6" d="M62,83.9"/>
<path id="XMLID_15_" class="st2" d="M60,89.9"/>
<path id="XMLID_22_" class="st2" d="M12.6,71.8c0,0-3.1,10.2,8.6,16.9"/>
<path id="XMLID_21_" class="st2" d="M21.6,73.8c0,0-3.1,10.2,8.6,16.9"/>
<path id="XMLID_31_" class="st2" d="M32.6,77.8c0,0-3.6,7.5,8.1,14.2"/>
<path id="XMLID_32_" class="st2" d="M41.6,79.8c0,0-3.6,7.5,8.1,14.2"/>
<line id="XMLID_153_" class="st7" x1="38.8" y1="97" x2="39.2" y2="144.5"/>
<path id="XMLID_152_" class="st8" d="M2.5,150.5"/>
<path id="XMLID_155_" class="st9" d="M67.5,62.6c0,0,4,17.6-6.9,31.4"/>
</svg>
