<?xml version="1.0" encoding="utf-8"?>
<!-- Generator: Adobe Illustrator 19.0.0, SVG Export Plug-In . SVG Version: 6.00 Build 0)  -->
<svg version="1.1" id="Layer_2" xmlns="http://www.w3.org/2000/svg" xmlns:xlink="http://www.w3.org/1999/xlink" x="0px" y="0px"
	 viewBox="0 0 93.2 180.5" style="enable-background:new 0 0 93.2 180.5;" xml:space="preserve">
<style type="text/css">
	.st0{fill:#FFFFFF;}
	.st1{fill:#D6D6D6;stroke:#000000;stroke-width:8;stroke-linejoin:bevel;stroke-miterlimit:10;}
	.st2{fill:#414D7F;stroke:#000000;stroke-width:5;stroke-miterlimit:10;}
	.st3{fill:#D6D6D6;stroke:#000000;stroke-width:8;stroke-miterlimit:10;}
	.st4{opacity:0.87;fill:none;stroke:#FFFFFF;stroke-width:9;stroke-miterlimit:10;}
	.st5{opacity:0.63;fill:#FFFFFF;}
	.st6{opacity:0.87;fill:#414D7F;stroke:#000000;stroke-width:5;stroke-miterlimit:10;}
	.st7{opacity:0.87;fill:none;stroke:#FFFFFF;stroke-width:3;stroke-miterlimit:10;}
</style>
<polygon id="XMLID_48_" class="st0" points="72.9,33.8 73.1,36 76.5,76.8 69.1,97 58.3,98.5 44.3,92.8 "/>
<path id="XMLID_16_" class="st1" d="M71.7,29.8c0,0-8.2,61.8-23.2,62.5C32.8,93,12.5,94,8,76.5C4.3,62,20.8,15.9,27.4,11
	c8.9-6.6,14.3-8,19.8-6.4S76.6,14.1,84.6,18c8.3,4,5.2,48-7.6,59.1"/>
<path id="XMLID_17_" class="st2" d="M45.4,25.4c0,0,6.6,4.4,16.2,6.3s9.6,1.9,9.6,1.9"/>
<path id="XMLID_18_" class="st2" d="M41.4,33.4c0,0,6.6,4.4,16.2,6.3c9.6,1.9,9.6,1.9,9.6,1.9"/>
<path id="XMLID_20_" class="st2" d="M39.4,42.4c0,0,6.6,4.4,16.2,6.3c9.6,1.9,9.6,1.9,9.6,1.9"/>
<path id="XMLID_19_" class="st2" d="M35.4,50.4c0,0,6.6,4.4,16.2,6.3c9.6,1.9,9.6,1.9,9.6,1.9"/>
<path id="XMLID_24_" class="st2" d="M33.4,59.4c0,0,6.6,4.4,16.2,6.3s14,3.2,14,3.2"/>
<path id="XMLID_23_" class="st2" d="M29.4,67.4c0,0,6.7,3.8,16.2,6.3c13.6,3.5,13.6,3.5,13.6,3.5"/>
<path id="XMLID_26_" class="st2" d="M38.4,25.4c0,0-14.6-2.8-17.4-6.9"/>
<path id="XMLID_25_" class="st2" d="M34.4,33.4c0,0-14.6-2.8-17.4-6.9"/>
<path id="XMLID_28_" class="st2" d="M31.4,41.4c0,0-14.6-2.8-17.4-6.9"/>
<path id="XMLID_27_" class="st2" d="M27.4,49.4c0,0-12.5-1.9-15.3-6"/>
<path id="XMLID_30_" class="st2" d="M27.4,58.4c0,0-14.6-2.8-17.4-6.9"/>
<ellipse id="XMLID_44_" class="st3" cx="43.4" cy="159" rx="39.4" ry="17.5"/>
<path id="XMLID_29_" class="st2" d="M23.4,66.4c0,0-12.6-1.8-15.4-5.9"/>
<line id="XMLID_34_" class="st2" x1="34.4" y1="16.5" x2="53.8" y2="5.9"/>
<line id="XMLID_33_" class="st2" x1="43.4" y1="19.5" x2="62.8" y2="8.9"/>
<line id="XMLID_36_" class="st2" x1="51.4" y1="23.5" x2="70.8" y2="12.9"/>
<line id="XMLID_35_" class="st2" x1="60.4" y1="26.5" x2="79.8" y2="15.9"/>
<path id="XMLID_38_" class="st4" d="M42.3,23.4c0,0-8.1,20-18.9,65.1"/>
<path id="XMLID_39_" class="st4" d="M32.7,16.2c4.9,1.2,40.6,11.2,37.4,10.3"/>
<path id="XMLID_45_" class="st3" d="M61.5,91.4c6.8-9.3,1.5-10.8,2-31.1c0.2-7,17.2-1.9,17.2-1.9s5.7,40.2-10.8,43.3
	c-9.8,1.9-23.6-2-33.1-5.4c-2.3-0.8-1.7-4.2,0.7-4.2c3.1,0,6.7,0.1,11,0C52.9,92.3,55.8,98,61.5,91.4"/>
<line id="XMLID_40_" class="st2" x1="77.2" y1="33.6" x2="86.4" y2="34.5"/>
<line id="XMLID_41_" class="st2" x1="77.2" y1="41.6" x2="86.5" y2="42.5"/>
<ellipse id="XMLID_37_" class="st3" cx="43.4" cy="149" rx="39.4" ry="17.5"/>
<ellipse id="XMLID_46_" class="st5" cx="42.8" cy="148.8" rx="32.7" ry="13.2"/>
<line id="XMLID_42_" class="st2" x1="76.5" y1="49.4" x2="86.5" y2="51.5"/>
<path id="XMLID_43_" class="st3" d="M29.5,91.7l3.5,53.9c0,0,8,10,16,0l-3.5-48.9L29.5,91.7z"/>
<path id="XMLID_151_" class="st6" d="M63.5,85.4"/>
<path id="XMLID_15_" class="st2" d="M61.5,91.4"/>
<path id="XMLID_22_" class="st2" d="M14.1,73.3c0,0-3.1,10.2,8.6,16.9"/>
<path id="XMLID_21_" class="st2" d="M23.1,75.3c0,0-3.1,10.2,8.6,16.9"/>
<path id="XMLID_31_" class="st2" d="M34.1,79.3c0,0-3.6,7.5,8.1,14.2"/>
<path id="XMLID_32_" class="st2" d="M43.1,81.3c0,0-3.6,7.5,8.1,14.2"/>
<line id="XMLID_153_" class="st7" x1="40.3" y1="98.5" x2="40.7" y2="146"/>
</svg>
