<?xml version="1.0" standalone="no"?>
<!DOCTYPE svg PUBLIC "-//W3C//DTD SVG 20010904//EN"
 "http://www.w3.org/TR/2001/REC-SVG-20010904/DTD/svg10.dtd">
<svg version="1.0" xmlns="http://www.w3.org/2000/svg"
 width="16.000000pt" height="16.000000pt" viewBox="0 0 16.000000 16.000000"
 preserveAspectRatio="xMidYMid meet">
<metadata>
Created by potrace 1.11, written by Peter Selinger 2001-2013
</metadata>
<g transform="translate(0.000000,16.000000) scale(0.006154,-0.006154)"
fill="#000000" stroke="none">
<path d="M1304 2451 c-354 -293 -600 -685 -681 -1086 -27 -133 -25 -460 3
-563 24 -83 32 -69 -91 -154 l-80 -55 -100 -8 -100 -7 -127 -90 c-71 -49 -128
-95 -128 -102 0 -8 27 -17 73 -25 39 -7 93 -17 118 -23 l46 -9 -22 -127 c-13
-70 -22 -128 -20 -130 2 -2 66 41 144 95 l140 98 40 90 c39 89 40 90 125 149
l86 60 53 -56 c124 -131 313 -208 513 -208 63 0 87 5 131 26 70 34 128 37 153
6 10 -12 25 -22 33 -22 25 0 128 82 202 161 163 172 245 356 245 549 0 124
-24 203 -118 382 -1 3 87 69 197 147 111 77 201 139 201 137 0 -2 -11 -63 -25
-136 -13 -74 -22 -136 -20 -139 4 -4 142 87 191 127 18 14 27 48 53 202 18
102 34 194 37 206 5 19 -7 22 -205 57 l-210 37 -101 -71 c-56 -39 -98 -75 -93
-79 4 -4 54 -16 111 -25 176 -29 180 -12 -43 -168 -108 -76 -201 -140 -208
-142 -14 -5 -113 117 -187 230 -136 209 -250 522 -250 686 0 21 -3 39 -7 39
-5 0 -40 -27 -79 -59z m52 -686 c22 -38 49 -83 60 -100 10 -16 14 -26 7 -22
-42 26 -179 282 -189 353 -4 30 4 17 38 -61 25 -55 62 -131 84 -170z m202
-434 c77 -40 126 -115 126 -192 1 -112 -87 -239 -257 -370 l-88 -68 -52 20
c-115 45 -191 94 -277 179 -88 86 -110 126 -110 195 0 77 51 160 121 195 73
38 171 17 233 -48 l28 -31 32 47 c57 84 162 115 244 73z"/>
</g>
</svg>
